# Blender v3.1.2 OBJ File: ''
# www.blender.org
mtllib Wall.mtl
o Cube
v -5.131599 4.113847 -5.461450
v -5.131599 0.814692 -5.461450
v -5.131599 4.113847 -0.512718
v -5.131599 0.814692 -0.507650
v -5.288412 3.863923 -5.086565
v -5.288412 1.064615 -5.086565
v -5.288411 3.863923 -0.887603
v -5.288412 1.064615 -0.887603
v -5.288412 0.814692 -5.461450
v -5.288412 0.814692 -0.507650
v -5.288412 4.113847 -5.461450
v -5.288411 4.113847 -0.512718
v -5.131599 0.539798 -5.873790
v -5.131599 0.539798 -0.110512
v -5.131599 4.388740 -5.873790
v -5.131599 4.388740 -0.100378
v -5.115062 3.863923 -5.086565
v -5.115062 1.064615 -5.086565
v -5.115062 3.863923 -0.887603
v -5.115062 1.064615 -0.887603
v -4.966047 3.863923 -5.086565
v -4.868769 3.309381 -4.254752
v -4.966047 1.064615 -5.086565
v -4.868769 1.619157 -4.254752
v -4.868768 3.309381 -1.719416
v -4.966047 3.863923 -0.887603
v -4.868769 1.619157 -1.719416
v -4.966047 1.064615 -0.887603
v -4.912198 4.113847 -5.462906
v -4.912198 4.113847 -0.513291
v -4.912198 4.388740 -5.873790
v -4.912198 4.388740 -0.100378
v -6.107867 4.464269 -5.844687
v -6.107867 4.369338 -5.987084
v -6.131599 4.369338 -5.844687
v -6.107867 0.464269 -5.844687
v -6.131599 0.559200 -5.844687
v -6.107867 0.559200 -5.987084
v -6.107866 4.369338 0.012916
v -6.107866 4.464269 -0.129481
v -6.131599 4.369338 -0.129481
v -6.107867 0.559200 0.012916
v -6.131599 0.559200 -0.129481
v -6.107867 0.464269 -0.129481
v -5.174215 0.464269 -5.844687
v -5.174215 0.559200 -5.987084
v -5.133909 0.530562 -5.887645
v -5.174214 0.464269 -0.129481
v -5.134106 0.529771 -0.094127
v -5.174214 0.559200 0.012916
v -5.174214 4.369338 -5.987084
v -5.174214 4.464269 -5.844687
v -5.133728 4.397253 -5.886559
v -5.174214 4.369338 0.012916
v -5.133549 4.396538 -0.088681
v -5.174214 4.464269 -0.129481
vt 0.853099 0.521901
vt 0.853099 0.728099
vt 0.853099 0.728099
vt 0.853099 0.521901
vt 0.646901 0.521901
vt 0.646901 0.728099
vt 0.629721 0.745279
vt 0.629721 0.504721
vt 0.870279 0.504721
vt 0.870279 0.745279
vt 0.380933 0.505933
vt 0.614346 0.505933
vt 0.614346 0.744067
vt 0.380933 0.744067
vt 0.380933 0.005933
vt 0.614346 0.005933
vt 0.614346 0.244067
vt 0.380933 0.244067
vt 0.646901 0.521901
vt 0.853099 0.521901
vt 0.628566 0.745857
vt 0.628657 0.504189
vt 0.130933 0.505933
vt 0.369067 0.505933
vt 0.369067 0.744067
vt 0.130933 0.744067
vt 0.646901 0.728099
vt 0.646901 0.521901
vt 0.662522 0.712478
vt 0.837478 0.712478
vt 0.662522 0.537522
vt 0.837478 0.537522
vt 0.662522 0.712478
vt 0.837478 0.712478
vt 0.837478 0.537522
vt 0.662522 0.537522
vt 0.625000 0.004721
vt 0.625000 0.245279
vt 0.624513 0.245767
vt 0.624373 0.004094
vt 0.625000 0.754721
vt 0.625000 0.995279
vt 0.624373 0.995906
vt 0.624423 0.754143
vt 0.625000 0.254721
vt 0.625000 0.495279
vt 0.624468 0.495811
vt 0.624513 0.254233
vt 0.380933 0.755933
vt 0.614346 0.755933
vt 0.614346 0.994067
vt 0.380933 0.994067
vt 0.662522 0.712478
vt 0.837478 0.712478
vt 0.837478 0.537522
vt 0.662522 0.537522
vt 0.688765 0.563764
vt 0.811236 0.563764
vt 0.811236 0.686236
vt 0.688765 0.686236
vt 0.629721 0.504721
vt 0.870279 0.504721
vt 0.625000 0.254721
vt 0.625000 0.495279
vt 0.380933 0.494067
vt 0.380933 0.500000
vt 0.375000 0.494067
vt 0.369067 0.750000
vt 0.369067 0.750000
vt 0.375000 0.744067
vt 0.380933 0.250000
vt 0.375000 0.244067
vt 0.125000 0.744067
vt 0.125000 0.744067
vt 0.130933 0.750000
vt 0.614346 0.750000
vt 0.614346 0.750000
vt 0.620279 0.745857
vt 0.620279 0.995540
vt 0.614346 1.000000
vt 0.614346 0.500000
vt 0.614346 0.500000
vt 0.620279 0.495811
vt 0.620279 0.245767
vt 0.614346 0.250000
vt 0.125000 0.505933
vt 0.130933 0.500000
vt 0.369067 0.500000
vt 0.614346 0.494067
vt 0.614346 0.255933
vt 0.380933 0.000000
vt 0.614346 0.000000
vt 0.380933 0.255933
vn 0.0000 -0.0015 -1.0000
vn 1.0000 0.0000 0.0000
vn 0.0000 0.0000 -1.0000
vn 0.0000 0.0000 1.0000
vn 0.0000 -1.0000 0.0000
vn 0.9864 0.0000 -0.1644
vn -1.0000 0.0000 0.0000
vn 0.0000 1.0000 0.0000
vn 0.9876 -0.0004 0.1567
vn 0.9701 -0.2425 -0.0000
vn 0.9701 0.2425 -0.0000
vn 0.9850 -0.1728 0.0000
vn 0.9932 0.0000 -0.1162
vn 0.9932 0.0000 0.1162
vn 0.9850 0.1728 -0.0000
vn 0.0007 -0.8322 0.5544
vn -0.0018 -0.8316 -0.5554
vn -0.9577 0.2394 -0.1596
vn -0.9577 -0.2394 -0.1596
vn -0.9577 0.2394 0.1596
vn -0.9577 -0.2394 0.1596
vn 0.6137 -0.6569 -0.4380
vn 0.6563 -0.6278 0.4185
vn 0.6264 0.6486 -0.4324
vn 0.6384 0.6405 0.4270
vn -0.9864 0.0000 0.1644
vn -0.9701 0.2425 0.0000
vn -0.9701 -0.2425 0.0000
vn -0.9864 0.0000 -0.1644
vn 0.8537 -0.5208 -0.0000
vn 0.9272 0.0000 -0.3746
vn 0.9326 -0.0003 0.3610
vn 0.8566 0.5159 0.0000
vn 0.0000 0.8321 -0.5547
vn 0.0000 -0.8321 -0.5547
vn 0.0000 -0.8321 0.5547
vn 0.0000 0.8321 0.5547
usemtl Material
s off
f 3/1/1 4/2/1 10/3/1 12/4/1
f 1/5/2 2/6/2 13/7/2 15/8/2
f 4/2/2 3/1/2 16/9/2 14/10/2
f 34/11/3 51/12/3 46/13/3 38/14/3
f 42/15/4 50/16/4 54/17/4 39/18/4
f 3/1/5 1/5/5 29/19/5 30/20/5
f 15/8/6 13/7/6 47/21/6 53/22/6
f 2/6/2 4/2/2 14/10/2 13/7/2
f 41/23/7 35/24/7 37/25/7 43/26/7
f 4/2/8 2/6/8 9/27/8 10/3/8
f 1/5/5 3/1/5 12/4/5 11/28/5
f 2/6/4 1/5/4 11/28/4 9/27/4
f 6/29/2 8/30/2 10/3/2 9/27/2
f 5/31/2 6/29/2 9/27/2 11/28/2
f 8/30/2 7/32/2 12/4/2 10/3/2
f 7/32/2 5/31/2 11/28/2 12/4/2
f 8/30/5 6/29/5 18/33/5 20/34/5
f 7/32/4 8/30/4 20/34/4 19/35/4
f 6/29/3 5/31/3 17/36/3 18/33/3
f 5/31/8 7/32/8 19/35/8 17/36/8
f 14/37/9 16/38/9 55/39/9 49/40/9
f 13/41/10 14/42/10 49/43/10 47/44/10
f 16/45/11 15/46/11 53/47/11 55/48/11
f 36/49/5 45/50/5 48/51/5 44/52/5
f 20/34/5 18/33/5 23/53/5 28/54/5
f 17/36/8 19/35/8 26/55/8 21/56/8
f 22/57/2 25/58/2 27/59/2 24/60/2
f 19/35/4 20/34/4 28/54/4 26/55/4
f 24/60/12 27/59/12 28/54/12 23/53/12
f 22/57/13 24/60/13 23/53/13 21/56/13
f 27/59/14 25/58/14 26/55/14 28/54/14
f 25/58/15 22/57/15 21/56/15 26/55/15
f 18/33/3 17/36/3 21/56/3 23/53/3
f 30/20/2 29/19/2 31/61/2 32/62/2
f 15/46/8 16/45/8 32/63/8 31/64/8
f 16/9/16 3/1/16 30/20/16 32/62/16
f 1/5/17 15/8/17 31/61/17 29/19/17
f 33/65/18 34/66/18 35/67/18
f 36/68/19 37/69/19 38/70/19
f 39/18/20 40/71/20 41/72/20
f 42/73/21 43/74/21 44/75/21
f 45/76/22 46/77/22 47/78/22
f 48/51/23 49/79/23 50/80/23
f 51/81/24 52/82/24 53/83/24
f 54/17/25 55/84/25 56/85/25
f 41/23/26 43/26/26 42/73/26 39/86/26
f 35/24/27 41/23/27 40/87/27 33/88/27
f 43/26/28 37/25/28 36/68/28 44/75/28
f 37/25/29 35/24/29 34/11/29 38/14/29
f 48/51/30 45/50/30 47/44/30 49/43/30
f 46/13/31 51/12/31 53/22/31 47/21/31
f 54/17/32 50/16/32 49/40/32 55/39/32
f 52/89/33 56/90/33 55/48/33 53/47/33
f 33/65/34 52/89/34 51/12/34 34/11/34
f 45/50/35 36/49/35 38/14/35 46/13/35
f 50/16/36 42/15/36 44/91/36 48/92/36
f 56/90/37 40/93/37 39/18/37 54/17/37
f 40/93/8 56/90/8 52/89/8 33/65/8
o Cube.001_Cube.004
v -6.286780 4.113847 -0.525802
v -6.286780 0.814692 -0.525802
v -6.286780 4.113847 -5.474534
v -6.286780 0.814692 -5.479601
v -6.129968 3.863923 -0.900687
v -6.129968 1.064615 -0.900687
v -6.129968 3.863923 -5.099649
v -6.129968 1.064615 -5.099649
v -6.129968 0.814692 -0.525802
v -6.129968 0.814692 -5.479601
v -6.129968 4.113847 -0.525802
v -6.129968 4.113847 -5.474534
v -6.286780 0.539798 -0.113461
v -6.286780 0.539798 -5.876740
v -6.286780 4.388740 -0.113461
v -6.286780 4.388740 -5.886874
v -6.303317 3.863923 -0.900687
v -6.303317 1.064615 -0.900687
v -6.303317 3.863923 -5.099649
v -6.303317 1.064615 -5.099649
v -6.452332 3.863923 -0.900687
v -6.549611 3.309381 -1.732500
v -6.452332 1.064615 -0.900687
v -6.549611 1.619157 -1.732500
v -6.549611 3.309381 -4.267836
v -6.452332 3.863923 -5.099649
v -6.549611 1.619157 -4.267836
v -6.452332 1.064615 -5.099649
v -6.506182 4.113847 -0.524346
v -6.506181 4.113847 -5.473960
v -6.506182 4.388740 -0.113461
v -6.506181 4.388740 -5.886874
v -5.310513 4.464269 -0.142565
v -5.310513 4.369338 -0.000168
v -5.286780 4.369338 -0.142565
v -5.310513 0.464269 -0.142565
v -5.286780 0.559200 -0.142565
v -5.310513 0.559200 -0.000168
v -5.310513 4.369338 -6.000168
v -5.310513 4.464269 -5.857771
v -5.286780 4.369338 -5.857771
v -5.310513 0.559200 -6.000168
v -5.286780 0.559200 -5.857771
v -5.310513 0.464269 -5.857771
v -6.244165 0.464269 -0.142565
v -6.244165 0.559200 -0.000168
v -6.284471 0.530562 -0.099607
v -6.244164 0.464269 -5.857771
v -6.284273 0.529771 -5.893125
v -6.244164 0.559200 -6.000168
v -6.244165 4.369338 -0.000168
v -6.244165 4.464269 -0.142565
v -6.284652 4.397253 -0.100693
v -6.244165 4.369338 -6.000168
v -6.284831 4.396538 -5.898571
v -6.244165 4.464269 -5.857771
vt 0.853099 0.521901
vt 0.853099 0.728099
vt 0.853099 0.728099
vt 0.853099 0.521901
vt 0.646901 0.521901
vt 0.646901 0.728099
vt 0.629721 0.745279
vt 0.629721 0.504721
vt 0.870279 0.504721
vt 0.870279 0.745279
vt 0.380933 0.505933
vt 0.614346 0.505933
vt 0.614346 0.744067
vt 0.380933 0.744067
vt 0.380933 0.005933
vt 0.614346 0.005933
vt 0.614346 0.244067
vt 0.380933 0.244067
vt 0.646901 0.521901
vt 0.853099 0.521901
vt 0.628566 0.745857
vt 0.628657 0.504189
vt 0.130933 0.505933
vt 0.369067 0.505933
vt 0.369067 0.744067
vt 0.130933 0.744067
vt 0.646901 0.728099
vt 0.646901 0.521901
vt 0.662522 0.712478
vt 0.837478 0.712478
vt 0.662522 0.537522
vt 0.837478 0.537522
vt 0.662522 0.712478
vt 0.837478 0.712478
vt 0.837478 0.537522
vt 0.662522 0.537522
vt 0.625000 0.004721
vt 0.625000 0.245279
vt 0.624513 0.245767
vt 0.624373 0.004094
vt 0.625000 0.754721
vt 0.625000 0.995279
vt 0.624373 0.995906
vt 0.624423 0.754143
vt 0.625000 0.254721
vt 0.625000 0.495279
vt 0.624468 0.495811
vt 0.624513 0.254233
vt 0.380933 0.755933
vt 0.614346 0.755933
vt 0.614346 0.994067
vt 0.380933 0.994067
vt 0.662522 0.712478
vt 0.837478 0.712478
vt 0.837478 0.537522
vt 0.662522 0.537522
vt 0.688765 0.563764
vt 0.811236 0.563764
vt 0.811236 0.686236
vt 0.688765 0.686236
vt 0.629721 0.504721
vt 0.870279 0.504721
vt 0.625000 0.254721
vt 0.625000 0.495279
vt 0.380933 0.494067
vt 0.380933 0.500000
vt 0.375000 0.494067
vt 0.369067 0.750000
vt 0.369067 0.750000
vt 0.375000 0.744067
vt 0.380933 0.250000
vt 0.375000 0.244067
vt 0.125000 0.744067
vt 0.125000 0.744067
vt 0.130933 0.750000
vt 0.614346 0.750000
vt 0.614346 0.750000
vt 0.620279 0.745857
vt 0.620279 0.995540
vt 0.614346 1.000000
vt 0.614346 0.500000
vt 0.614346 0.500000
vt 0.620279 0.495811
vt 0.620279 0.245767
vt 0.614346 0.250000
vt 0.125000 0.505933
vt 0.130933 0.500000
vt 0.369067 0.500000
vt 0.614346 0.494067
vt 0.614346 0.255933
vt 0.380933 0.000000
vt 0.614346 0.000000
vt 0.380933 0.255933
vn 0.0000 -0.0015 1.0000
vn -1.0000 -0.0000 -0.0000
vn 0.0000 0.0000 1.0000
vn 0.0000 0.0000 -1.0000
vn 0.0000 -1.0000 0.0000
vn -0.9864 -0.0000 0.1644
vn 1.0000 0.0000 0.0000
vn 0.0000 1.0000 0.0000
vn -0.9876 -0.0004 -0.1567
vn -0.9701 -0.2426 -0.0000
vn -0.9701 0.2426 -0.0000
vn -0.9850 -0.1728 -0.0000
vn -0.9932 0.0000 0.1162
vn -0.9932 -0.0000 -0.1162
vn -0.9850 0.1728 0.0000
vn -0.0007 -0.8322 -0.5544
vn 0.0018 -0.8316 0.5554
vn 0.9577 0.2394 0.1596
vn 0.9577 -0.2394 0.1596
vn 0.9577 0.2394 -0.1596
vn 0.9577 -0.2394 -0.1596
vn -0.6137 -0.6569 0.4380
vn -0.6563 -0.6278 -0.4185
vn -0.6264 0.6486 0.4324
vn -0.6383 0.6405 -0.4270
vn 0.9864 0.0000 -0.1644
vn 0.9701 0.2425 0.0000
vn 0.9701 -0.2425 0.0000
vn 0.9864 0.0000 0.1644
vn -0.8536 -0.5209 0.0000
vn -0.9272 0.0000 0.3746
vn -0.9326 -0.0003 -0.3610
vn -0.8566 0.5159 -0.0000
vn 0.0000 0.8321 0.5547
vn 0.0000 -0.8321 0.5547
vn 0.0000 -0.8321 -0.5547
vn 0.0000 0.8321 -0.5547
usemtl Material.004
s off
f 59/94/38 60/95/38 66/96/38 68/97/38
f 57/98/39 58/99/39 69/100/39 71/101/39
f 60/95/39 59/94/39 72/102/39 70/103/39
f 90/104/40 107/105/40 102/106/40 94/107/40
f 98/108/41 106/109/41 110/110/41 95/111/41
f 59/94/42 57/98/42 85/112/42 86/113/42
f 71/101/43 69/100/43 103/114/43 109/115/43
f 58/99/39 60/95/39 70/103/39 69/100/39
f 97/116/44 91/117/44 93/118/44 99/119/44
f 60/95/45 58/99/45 65/120/45 66/96/45
f 57/98/42 59/94/42 68/97/42 67/121/42
f 58/99/41 57/98/41 67/121/41 65/120/41
f 62/122/39 64/123/39 66/96/39 65/120/39
f 61/124/39 62/122/39 65/120/39 67/121/39
f 64/123/39 63/125/39 68/97/39 66/96/39
f 63/125/39 61/124/39 67/121/39 68/97/39
f 64/123/42 62/122/42 74/126/42 76/127/42
f 63/125/41 64/123/41 76/127/41 75/128/41
f 62/122/40 61/124/40 73/129/40 74/126/40
f 61/124/45 63/125/45 75/128/45 73/129/45
f 70/130/46 72/131/46 111/132/46 105/133/46
f 69/134/47 70/135/47 105/136/47 103/137/47
f 72/138/48 71/139/48 109/140/48 111/141/48
f 92/142/42 101/143/42 104/144/42 100/145/42
f 76/127/42 74/126/42 79/146/42 84/147/42
f 73/129/45 75/128/45 82/148/45 77/149/45
f 78/150/39 81/151/39 83/152/39 80/153/39
f 75/128/41 76/127/41 84/147/41 82/148/41
f 80/153/49 83/152/49 84/147/49 79/146/49
f 78/150/50 80/153/50 79/146/50 77/149/50
f 83/152/51 81/151/51 82/148/51 84/147/51
f 81/151/52 78/150/52 77/149/52 82/148/52
f 74/126/40 73/129/40 77/149/40 79/146/40
f 86/113/39 85/112/39 87/154/39 88/155/39
f 71/139/45 72/138/45 88/156/45 87/157/45
f 72/102/53 59/94/53 86/113/53 88/155/53
f 57/98/54 71/101/54 87/154/54 85/112/54
f 89/158/55 90/159/55 91/160/55
f 92/161/56 93/162/56 94/163/56
f 95/111/57 96/164/57 97/165/57
f 98/166/58 99/167/58 100/168/58
f 101/169/59 102/170/59 103/171/59
f 104/144/60 105/172/60 106/173/60
f 107/174/61 108/175/61 109/176/61
f 110/110/62 111/177/62 112/178/62
f 97/116/63 99/119/63 98/166/63 95/179/63
f 91/117/64 97/116/64 96/180/64 89/181/64
f 99/119/65 93/118/65 92/161/65 100/168/65
f 93/118/66 91/117/66 90/104/66 94/107/66
f 104/144/67 101/143/67 103/137/67 105/136/67
f 102/106/68 107/105/68 109/115/68 103/114/68
f 110/110/69 106/109/69 105/133/69 111/132/69
f 108/182/70 112/183/70 111/141/70 109/140/70
f 89/158/71 108/182/71 107/105/71 90/104/71
f 101/143/72 92/142/72 94/107/72 102/106/72
f 106/109/73 98/108/73 100/184/73 104/185/73
f 112/183/74 96/186/74 95/111/74 110/110/74
f 96/186/45 112/183/45 108/182/45 89/158/45
